<svg width="241" height="684" viewBox="0 0 241 684" fill="none" xmlns="http://www.w3.org/2000/svg">
<g clip-path="url(#clip0_378_1627)">
<path d="M0 -100H4V-96H0V-100Z" fill="#E5E7EB"/>
<path d="M20 -100H24V-96H20V-100Z" fill="#E5E7EB"/>
<path d="M40 -100H44V-96H40V-100Z" fill="#E5E7EB"/>
<path d="M60 -100H64V-96H60V-100Z" fill="#E5E7EB"/>
<path d="M80 -100H84V-96H80V-100Z" fill="#E5E7EB"/>
<path d="M100 -100H104V-96H100V-100Z" fill="#E5E7EB"/>
<path d="M120 -100H124V-96H120V-100Z" fill="#E5E7EB"/>
<path d="M140 -100H144V-96H140V-100Z" fill="#E5E7EB"/>
<path d="M160 -100H164V-96H160V-100Z" fill="#E5E7EB"/>
<path d="M180 -100H184V-96H180V-100Z" fill="#E5E7EB"/>
<path d="M200 -100H204V-96H200V-100Z" fill="#E5E7EB"/>
<path d="M220 -100H224V-96H220V-100Z" fill="#E5E7EB"/>
<path d="M240 -100H244V-96H240V-100Z" fill="#E5E7EB"/>
<path d="M260 -100H264V-96H260V-100Z" fill="#E5E7EB"/>
<path d="M280 -100H284V-96H280V-100Z" fill="#E5E7EB"/>
<path d="M300 -100H304V-96H300V-100Z" fill="#E5E7EB"/>
<path d="M320 -100H324V-96H320V-100Z" fill="#E5E7EB"/>
<path d="M340 -100H344V-96H340V-100Z" fill="#E5E7EB"/>
<path d="M360 -100H364V-96H360V-100Z" fill="#E5E7EB"/>
<path d="M380 -100H384V-96H380V-100Z" fill="#E5E7EB"/>
<path d="M400 -100H404V-96H400V-100Z" fill="#E5E7EB"/>
<path d="M0 -80H4V-76H0V-80Z" fill="#E5E7EB"/>
<path d="M20 -80H24V-76H20V-80Z" fill="#E5E7EB"/>
<path d="M40 -80H44V-76H40V-80Z" fill="#E5E7EB"/>
<path d="M60 -80H64V-76H60V-80Z" fill="#E5E7EB"/>
<path d="M80 -80H84V-76H80V-80Z" fill="#E5E7EB"/>
<path d="M100 -80H104V-76H100V-80Z" fill="#E5E7EB"/>
<path d="M120 -80H124V-76H120V-80Z" fill="#E5E7EB"/>
<path d="M140 -80H144V-76H140V-80Z" fill="#E5E7EB"/>
<path d="M160 -80H164V-76H160V-80Z" fill="#E5E7EB"/>
<path d="M180 -80H184V-76H180V-80Z" fill="#E5E7EB"/>
<path d="M200 -80H204V-76H200V-80Z" fill="#E5E7EB"/>
<path d="M220 -80H224V-76H220V-80Z" fill="#E5E7EB"/>
<path d="M240 -80H244V-76H240V-80Z" fill="#E5E7EB"/>
<path d="M260 -80H264V-76H260V-80Z" fill="#E5E7EB"/>
<path d="M280 -80H284V-76H280V-80Z" fill="#E5E7EB"/>
<path d="M300 -80H304V-76H300V-80Z" fill="#E5E7EB"/>
<path d="M320 -80H324V-76H320V-80Z" fill="#E5E7EB"/>
<path d="M340 -80H344V-76H340V-80Z" fill="#E5E7EB"/>
<path d="M360 -80H364V-76H360V-80Z" fill="#E5E7EB"/>
<path d="M380 -80H384V-76H380V-80Z" fill="#E5E7EB"/>
<path d="M400 -80H404V-76H400V-80Z" fill="#E5E7EB"/>
<path d="M0 -60H4V-56H0V-60Z" fill="#E5E7EB"/>
<path d="M20 -60H24V-56H20V-60Z" fill="#E5E7EB"/>
<path d="M40 -60H44V-56H40V-60Z" fill="#E5E7EB"/>
<path d="M60 -60H64V-56H60V-60Z" fill="#E5E7EB"/>
<path d="M80 -60H84V-56H80V-60Z" fill="#E5E7EB"/>
<path d="M100 -60H104V-56H100V-60Z" fill="#E5E7EB"/>
<path d="M120 -60H124V-56H120V-60Z" fill="#E5E7EB"/>
<path d="M140 -60H144V-56H140V-60Z" fill="#E5E7EB"/>
<path d="M160 -60H164V-56H160V-60Z" fill="#E5E7EB"/>
<path d="M180 -60H184V-56H180V-60Z" fill="#E5E7EB"/>
<path d="M200 -60H204V-56H200V-60Z" fill="#E5E7EB"/>
<path d="M220 -60H224V-56H220V-60Z" fill="#E5E7EB"/>
<path d="M240 -60H244V-56H240V-60Z" fill="#E5E7EB"/>
<path d="M260 -60H264V-56H260V-60Z" fill="#E5E7EB"/>
<path d="M280 -60H284V-56H280V-60Z" fill="#E5E7EB"/>
<path d="M300 -60H304V-56H300V-60Z" fill="#E5E7EB"/>
<path d="M320 -60H324V-56H320V-60Z" fill="#E5E7EB"/>
<path d="M340 -60H344V-56H340V-60Z" fill="#E5E7EB"/>
<path d="M360 -60H364V-56H360V-60Z" fill="#E5E7EB"/>
<path d="M380 -60H384V-56H380V-60Z" fill="#E5E7EB"/>
<path d="M400 -60H404V-56H400V-60Z" fill="#E5E7EB"/>
<path d="M0 -40H4V-36H0V-40Z" fill="#E5E7EB"/>
<path d="M20 -40H24V-36H20V-40Z" fill="#E5E7EB"/>
<path d="M40 -40H44V-36H40V-40Z" fill="#E5E7EB"/>
<path d="M60 -40H64V-36H60V-40Z" fill="#E5E7EB"/>
<path d="M80 -40H84V-36H80V-40Z" fill="#E5E7EB"/>
<path d="M100 -40H104V-36H100V-40Z" fill="#E5E7EB"/>
<path d="M120 -40H124V-36H120V-40Z" fill="#E5E7EB"/>
<path d="M140 -40H144V-36H140V-40Z" fill="#E5E7EB"/>
<path d="M160 -40H164V-36H160V-40Z" fill="#E5E7EB"/>
<path d="M180 -40H184V-36H180V-40Z" fill="#E5E7EB"/>
<path d="M200 -40H204V-36H200V-40Z" fill="#E5E7EB"/>
<path d="M220 -40H224V-36H220V-40Z" fill="#E5E7EB"/>
<path d="M240 -40H244V-36H240V-40Z" fill="#E5E7EB"/>
<path d="M260 -40H264V-36H260V-40Z" fill="#E5E7EB"/>
<path d="M280 -40H284V-36H280V-40Z" fill="#E5E7EB"/>
<path d="M300 -40H304V-36H300V-40Z" fill="#E5E7EB"/>
<path d="M320 -40H324V-36H320V-40Z" fill="#E5E7EB"/>
<path d="M340 -40H344V-36H340V-40Z" fill="#E5E7EB"/>
<path d="M360 -40H364V-36H360V-40Z" fill="#E5E7EB"/>
<path d="M380 -40H384V-36H380V-40Z" fill="#E5E7EB"/>
<path d="M400 -40H404V-36H400V-40Z" fill="#E5E7EB"/>
<path d="M0 -20H4V-16H0V-20Z" fill="#E5E7EB"/>
<path d="M20 -20H24V-16H20V-20Z" fill="#E5E7EB"/>
<path d="M40 -20H44V-16H40V-20Z" fill="#E5E7EB"/>
<path d="M60 -20H64V-16H60V-20Z" fill="#E5E7EB"/>
<path d="M80 -20H84V-16H80V-20Z" fill="#E5E7EB"/>
<path d="M100 -20H104V-16H100V-20Z" fill="#E5E7EB"/>
<path d="M120 -20H124V-16H120V-20Z" fill="#E5E7EB"/>
<path d="M140 -20H144V-16H140V-20Z" fill="#E5E7EB"/>
<path d="M160 -20H164V-16H160V-20Z" fill="#E5E7EB"/>
<path d="M180 -20H184V-16H180V-20Z" fill="#E5E7EB"/>
<path d="M200 -20H204V-16H200V-20Z" fill="#E5E7EB"/>
<path d="M220 -20H224V-16H220V-20Z" fill="#E5E7EB"/>
<path d="M240 -20H244V-16H240V-20Z" fill="#E5E7EB"/>
<path d="M260 -20H264V-16H260V-20Z" fill="#E5E7EB"/>
<path d="M280 -20H284V-16H280V-20Z" fill="#E5E7EB"/>
<path d="M300 -20H304V-16H300V-20Z" fill="#E5E7EB"/>
<path d="M320 -20H324V-16H320V-20Z" fill="#E5E7EB"/>
<path d="M340 -20H344V-16H340V-20Z" fill="#E5E7EB"/>
<path d="M360 -20H364V-16H360V-20Z" fill="#E5E7EB"/>
<path d="M380 -20H384V-16H380V-20Z" fill="#E5E7EB"/>
<path d="M400 -20H404V-16H400V-20Z" fill="#E5E7EB"/>
<path d="M0 0H4V4H0V0Z" fill="#E5E7EB"/>
<path d="M20 0H24V4H20V0Z" fill="#E5E7EB"/>
<path d="M40 0H44V4H40V0Z" fill="#E5E7EB"/>
<path d="M60 0H64V4H60V0Z" fill="#E5E7EB"/>
<path d="M80 0H84V4H80V0Z" fill="#E5E7EB"/>
<path d="M100 0H104V4H100V0Z" fill="#E5E7EB"/>
<path d="M120 0H124V4H120V0Z" fill="#E5E7EB"/>
<path d="M140 0H144V4H140V0Z" fill="#E5E7EB"/>
<path d="M160 0H164V4H160V0Z" fill="#E5E7EB"/>
<path d="M180 0H184V4H180V0Z" fill="#E5E7EB"/>
<path d="M200 0H204V4H200V0Z" fill="#E5E7EB"/>
<path d="M220 0H224V4H220V0Z" fill="#E5E7EB"/>
<path d="M240 0H244V4H240V0Z" fill="#E5E7EB"/>
<path d="M260 0H264V4H260V0Z" fill="#E5E7EB"/>
<path d="M280 0H284V4H280V0Z" fill="#E5E7EB"/>
<path d="M300 0H304V4H300V0Z" fill="#E5E7EB"/>
<path d="M320 0H324V4H320V0Z" fill="#E5E7EB"/>
<path d="M340 0H344V4H340V0Z" fill="#E5E7EB"/>
<path d="M360 0H364V4H360V0Z" fill="#E5E7EB"/>
<path d="M380 0H384V4H380V0Z" fill="#E5E7EB"/>
<path d="M400 0H404V4H400V0Z" fill="#E5E7EB"/>
<path d="M0 20H4V24H0V20Z" fill="#E5E7EB"/>
<path d="M20 20H24V24H20V20Z" fill="#E5E7EB"/>
<path d="M40 20H44V24H40V20Z" fill="#E5E7EB"/>
<path d="M60 20H64V24H60V20Z" fill="#E5E7EB"/>
<path d="M80 20H84V24H80V20Z" fill="#E5E7EB"/>
<path d="M100 20H104V24H100V20Z" fill="#E5E7EB"/>
<path d="M120 20H124V24H120V20Z" fill="#E5E7EB"/>
<path d="M140 20H144V24H140V20Z" fill="#E5E7EB"/>
<path d="M160 20H164V24H160V20Z" fill="#E5E7EB"/>
<path d="M180 20H184V24H180V20Z" fill="#E5E7EB"/>
<path d="M200 20H204V24H200V20Z" fill="#E5E7EB"/>
<path d="M220 20H224V24H220V20Z" fill="#E5E7EB"/>
<path d="M240 20H244V24H240V20Z" fill="#E5E7EB"/>
<path d="M260 20H264V24H260V20Z" fill="#E5E7EB"/>
<path d="M280 20H284V24H280V20Z" fill="#E5E7EB"/>
<path d="M300 20H304V24H300V20Z" fill="#E5E7EB"/>
<path d="M320 20H324V24H320V20Z" fill="#E5E7EB"/>
<path d="M340 20H344V24H340V20Z" fill="#E5E7EB"/>
<path d="M360 20H364V24H360V20Z" fill="#E5E7EB"/>
<path d="M380 20H384V24H380V20Z" fill="#E5E7EB"/>
<path d="M400 20H404V24H400V20Z" fill="#E5E7EB"/>
<path d="M0 40H4V44H0V40Z" fill="#E5E7EB"/>
<path d="M20 40H24V44H20V40Z" fill="#E5E7EB"/>
<path d="M40 40H44V44H40V40Z" fill="#E5E7EB"/>
<path d="M60 40H64V44H60V40Z" fill="#E5E7EB"/>
<path d="M80 40H84V44H80V40Z" fill="#E5E7EB"/>
<path d="M100 40H104V44H100V40Z" fill="#E5E7EB"/>
<path d="M120 40H124V44H120V40Z" fill="#E5E7EB"/>
<path d="M140 40H144V44H140V40Z" fill="#E5E7EB"/>
<path d="M160 40H164V44H160V40Z" fill="#E5E7EB"/>
<path d="M180 40H184V44H180V40Z" fill="#E5E7EB"/>
<path d="M200 40H204V44H200V40Z" fill="#E5E7EB"/>
<path d="M220 40H224V44H220V40Z" fill="#E5E7EB"/>
<path d="M240 40H244V44H240V40Z" fill="#E5E7EB"/>
<path d="M260 40H264V44H260V40Z" fill="#E5E7EB"/>
<path d="M280 40H284V44H280V40Z" fill="#E5E7EB"/>
<path d="M300 40H304V44H300V40Z" fill="#E5E7EB"/>
<path d="M320 40H324V44H320V40Z" fill="#E5E7EB"/>
<path d="M340 40H344V44H340V40Z" fill="#E5E7EB"/>
<path d="M360 40H364V44H360V40Z" fill="#E5E7EB"/>
<path d="M380 40H384V44H380V40Z" fill="#E5E7EB"/>
<path d="M400 40H404V44H400V40Z" fill="#E5E7EB"/>
<path d="M0 60H4V64H0V60Z" fill="#E5E7EB"/>
<path d="M20 60H24V64H20V60Z" fill="#E5E7EB"/>
<path d="M40 60H44V64H40V60Z" fill="#E5E7EB"/>
<path d="M60 60H64V64H60V60Z" fill="#E5E7EB"/>
<path d="M80 60H84V64H80V60Z" fill="#E5E7EB"/>
<path d="M100 60H104V64H100V60Z" fill="#E5E7EB"/>
<path d="M120 60H124V64H120V60Z" fill="#E5E7EB"/>
<path d="M140 60H144V64H140V60Z" fill="#E5E7EB"/>
<path d="M160 60H164V64H160V60Z" fill="#E5E7EB"/>
<path d="M180 60H184V64H180V60Z" fill="#E5E7EB"/>
<path d="M200 60H204V64H200V60Z" fill="#E5E7EB"/>
<path d="M220 60H224V64H220V60Z" fill="#E5E7EB"/>
<path d="M240 60H244V64H240V60Z" fill="#E5E7EB"/>
<path d="M260 60H264V64H260V60Z" fill="#E5E7EB"/>
<path d="M280 60H284V64H280V60Z" fill="#E5E7EB"/>
<path d="M300 60H304V64H300V60Z" fill="#E5E7EB"/>
<path d="M320 60H324V64H320V60Z" fill="#E5E7EB"/>
<path d="M340 60H344V64H340V60Z" fill="#E5E7EB"/>
<path d="M360 60H364V64H360V60Z" fill="#E5E7EB"/>
<path d="M380 60H384V64H380V60Z" fill="#E5E7EB"/>
<path d="M400 60H404V64H400V60Z" fill="#E5E7EB"/>
<path d="M0 80H4V84H0V80Z" fill="#E5E7EB"/>
<path d="M20 80H24V84H20V80Z" fill="#E5E7EB"/>
<path d="M40 80H44V84H40V80Z" fill="#E5E7EB"/>
<path d="M60 80H64V84H60V80Z" fill="#E5E7EB"/>
<path d="M80 80H84V84H80V80Z" fill="#E5E7EB"/>
<path d="M100 80H104V84H100V80Z" fill="#E5E7EB"/>
<path d="M120 80H124V84H120V80Z" fill="#E5E7EB"/>
<path d="M140 80H144V84H140V80Z" fill="#E5E7EB"/>
<path d="M160 80H164V84H160V80Z" fill="#E5E7EB"/>
<path d="M180 80H184V84H180V80Z" fill="#E5E7EB"/>
<path d="M200 80H204V84H200V80Z" fill="#E5E7EB"/>
<path d="M220 80H224V84H220V80Z" fill="#E5E7EB"/>
<path d="M240 80H244V84H240V80Z" fill="#E5E7EB"/>
<path d="M260 80H264V84H260V80Z" fill="#E5E7EB"/>
<path d="M280 80H284V84H280V80Z" fill="#E5E7EB"/>
<path d="M300 80H304V84H300V80Z" fill="#E5E7EB"/>
<path d="M320 80H324V84H320V80Z" fill="#E5E7EB"/>
<path d="M340 80H344V84H340V80Z" fill="#E5E7EB"/>
<path d="M360 80H364V84H360V80Z" fill="#E5E7EB"/>
<path d="M380 80H384V84H380V80Z" fill="#E5E7EB"/>
<path d="M400 80H404V84H400V80Z" fill="#E5E7EB"/>
<path d="M0 100H4V104H0V100Z" fill="#E5E7EB"/>
<path d="M20 100H24V104H20V100Z" fill="#E5E7EB"/>
<path d="M40 100H44V104H40V100Z" fill="#E5E7EB"/>
<path d="M60 100H64V104H60V100Z" fill="#E5E7EB"/>
<path d="M80 100H84V104H80V100Z" fill="#E5E7EB"/>
<path d="M100 100H104V104H100V100Z" fill="#E5E7EB"/>
<path d="M120 100H124V104H120V100Z" fill="#E5E7EB"/>
<path d="M140 100H144V104H140V100Z" fill="#E5E7EB"/>
<path d="M160 100H164V104H160V100Z" fill="#E5E7EB"/>
<path d="M180 100H184V104H180V100Z" fill="#E5E7EB"/>
<path d="M200 100H204V104H200V100Z" fill="#E5E7EB"/>
<path d="M220 100H224V104H220V100Z" fill="#E5E7EB"/>
<path d="M240 100H244V104H240V100Z" fill="#E5E7EB"/>
<path d="M260 100H264V104H260V100Z" fill="#E5E7EB"/>
<path d="M280 100H284V104H280V100Z" fill="#E5E7EB"/>
<path d="M300 100H304V104H300V100Z" fill="#E5E7EB"/>
<path d="M320 100H324V104H320V100Z" fill="#E5E7EB"/>
<path d="M340 100H344V104H340V100Z" fill="#E5E7EB"/>
<path d="M360 100H364V104H360V100Z" fill="#E5E7EB"/>
<path d="M380 100H384V104H380V100Z" fill="#E5E7EB"/>
<path d="M400 100H404V104H400V100Z" fill="#E5E7EB"/>
<path d="M0 120H4V124H0V120Z" fill="#E5E7EB"/>
<path d="M20 120H24V124H20V120Z" fill="#E5E7EB"/>
<path d="M40 120H44V124H40V120Z" fill="#E5E7EB"/>
<path d="M60 120H64V124H60V120Z" fill="#E5E7EB"/>
<path d="M80 120H84V124H80V120Z" fill="#E5E7EB"/>
<path d="M100 120H104V124H100V120Z" fill="#E5E7EB"/>
<path d="M120 120H124V124H120V120Z" fill="#E5E7EB"/>
<path d="M140 120H144V124H140V120Z" fill="#E5E7EB"/>
<path d="M160 120H164V124H160V120Z" fill="#E5E7EB"/>
<path d="M180 120H184V124H180V120Z" fill="#E5E7EB"/>
<path d="M200 120H204V124H200V120Z" fill="#E5E7EB"/>
<path d="M220 120H224V124H220V120Z" fill="#E5E7EB"/>
<path d="M240 120H244V124H240V120Z" fill="#E5E7EB"/>
<path d="M260 120H264V124H260V120Z" fill="#E5E7EB"/>
<path d="M280 120H284V124H280V120Z" fill="#E5E7EB"/>
<path d="M300 120H304V124H300V120Z" fill="#E5E7EB"/>
<path d="M320 120H324V124H320V120Z" fill="#E5E7EB"/>
<path d="M340 120H344V124H340V120Z" fill="#E5E7EB"/>
<path d="M360 120H364V124H360V120Z" fill="#E5E7EB"/>
<path d="M380 120H384V124H380V120Z" fill="#E5E7EB"/>
<path d="M400 120H404V124H400V120Z" fill="#E5E7EB"/>
<path d="M0 140H4V144H0V140Z" fill="#E5E7EB"/>
<path d="M20 140H24V144H20V140Z" fill="#E5E7EB"/>
<path d="M40 140H44V144H40V140Z" fill="#E5E7EB"/>
<path d="M60 140H64V144H60V140Z" fill="#E5E7EB"/>
<path d="M80 140H84V144H80V140Z" fill="#E5E7EB"/>
<path d="M100 140H104V144H100V140Z" fill="#E5E7EB"/>
<path d="M120 140H124V144H120V140Z" fill="#E5E7EB"/>
<path d="M140 140H144V144H140V140Z" fill="#E5E7EB"/>
<path d="M160 140H164V144H160V140Z" fill="#E5E7EB"/>
<path d="M180 140H184V144H180V140Z" fill="#E5E7EB"/>
<path d="M200 140H204V144H200V140Z" fill="#E5E7EB"/>
<path d="M220 140H224V144H220V140Z" fill="#E5E7EB"/>
<path d="M240 140H244V144H240V140Z" fill="#E5E7EB"/>
<path d="M260 140H264V144H260V140Z" fill="#E5E7EB"/>
<path d="M280 140H284V144H280V140Z" fill="#E5E7EB"/>
<path d="M300 140H304V144H300V140Z" fill="#E5E7EB"/>
<path d="M320 140H324V144H320V140Z" fill="#E5E7EB"/>
<path d="M340 140H344V144H340V140Z" fill="#E5E7EB"/>
<path d="M360 140H364V144H360V140Z" fill="#E5E7EB"/>
<path d="M380 140H384V144H380V140Z" fill="#E5E7EB"/>
<path d="M400 140H404V144H400V140Z" fill="#E5E7EB"/>
<path d="M0 160H4V164H0V160Z" fill="#E5E7EB"/>
<path d="M20 160H24V164H20V160Z" fill="#E5E7EB"/>
<path d="M40 160H44V164H40V160Z" fill="#E5E7EB"/>
<path d="M60 160H64V164H60V160Z" fill="#E5E7EB"/>
<path d="M80 160H84V164H80V160Z" fill="#E5E7EB"/>
<path d="M100 160H104V164H100V160Z" fill="#E5E7EB"/>
<path d="M120 160H124V164H120V160Z" fill="#E5E7EB"/>
<path d="M140 160H144V164H140V160Z" fill="#E5E7EB"/>
<path d="M160 160H164V164H160V160Z" fill="#E5E7EB"/>
<path d="M180 160H184V164H180V160Z" fill="#E5E7EB"/>
<path d="M200 160H204V164H200V160Z" fill="#E5E7EB"/>
<path d="M220 160H224V164H220V160Z" fill="#E5E7EB"/>
<path d="M240 160H244V164H240V160Z" fill="#E5E7EB"/>
<path d="M260 160H264V164H260V160Z" fill="#E5E7EB"/>
<path d="M280 160H284V164H280V160Z" fill="#E5E7EB"/>
<path d="M300 160H304V164H300V160Z" fill="#E5E7EB"/>
<path d="M320 160H324V164H320V160Z" fill="#E5E7EB"/>
<path d="M340 160H344V164H340V160Z" fill="#E5E7EB"/>
<path d="M360 160H364V164H360V160Z" fill="#E5E7EB"/>
<path d="M380 160H384V164H380V160Z" fill="#E5E7EB"/>
<path d="M400 160H404V164H400V160Z" fill="#E5E7EB"/>
<path d="M0 180H4V184H0V180Z" fill="#E5E7EB"/>
<path d="M20 180H24V184H20V180Z" fill="#E5E7EB"/>
<path d="M40 180H44V184H40V180Z" fill="#E5E7EB"/>
<path d="M60 180H64V184H60V180Z" fill="#E5E7EB"/>
<path d="M80 180H84V184H80V180Z" fill="#E5E7EB"/>
<path d="M100 180H104V184H100V180Z" fill="#E5E7EB"/>
<path d="M120 180H124V184H120V180Z" fill="#E5E7EB"/>
<path d="M140 180H144V184H140V180Z" fill="#E5E7EB"/>
<path d="M160 180H164V184H160V180Z" fill="#E5E7EB"/>
<path d="M180 180H184V184H180V180Z" fill="#E5E7EB"/>
<path d="M200 180H204V184H200V180Z" fill="#E5E7EB"/>
<path d="M220 180H224V184H220V180Z" fill="#E5E7EB"/>
<path d="M240 180H244V184H240V180Z" fill="#E5E7EB"/>
<path d="M260 180H264V184H260V180Z" fill="#E5E7EB"/>
<path d="M280 180H284V184H280V180Z" fill="#E5E7EB"/>
<path d="M300 180H304V184H300V180Z" fill="#E5E7EB"/>
<path d="M320 180H324V184H320V180Z" fill="#E5E7EB"/>
<path d="M340 180H344V184H340V180Z" fill="#E5E7EB"/>
<path d="M360 180H364V184H360V180Z" fill="#E5E7EB"/>
<path d="M380 180H384V184H380V180Z" fill="#E5E7EB"/>
<path d="M400 180H404V184H400V180Z" fill="#E5E7EB"/>
<path d="M0 200H4V204H0V200Z" fill="#E5E7EB"/>
<path d="M20 200H24V204H20V200Z" fill="#E5E7EB"/>
<path d="M40 200H44V204H40V200Z" fill="#E5E7EB"/>
<path d="M60 200H64V204H60V200Z" fill="#E5E7EB"/>
<path d="M80 200H84V204H80V200Z" fill="#E5E7EB"/>
<path d="M100 200H104V204H100V200Z" fill="#E5E7EB"/>
<path d="M120 200H124V204H120V200Z" fill="#E5E7EB"/>
<path d="M140 200H144V204H140V200Z" fill="#E5E7EB"/>
<path d="M160 200H164V204H160V200Z" fill="#E5E7EB"/>
<path d="M180 200H184V204H180V200Z" fill="#E5E7EB"/>
<path d="M200 200H204V204H200V200Z" fill="#E5E7EB"/>
<path d="M220 200H224V204H220V200Z" fill="#E5E7EB"/>
<path d="M240 200H244V204H240V200Z" fill="#E5E7EB"/>
<path d="M260 200H264V204H260V200Z" fill="#E5E7EB"/>
<path d="M280 200H284V204H280V200Z" fill="#E5E7EB"/>
<path d="M300 200H304V204H300V200Z" fill="#E5E7EB"/>
<path d="M320 200H324V204H320V200Z" fill="#E5E7EB"/>
<path d="M340 200H344V204H340V200Z" fill="#E5E7EB"/>
<path d="M360 200H364V204H360V200Z" fill="#E5E7EB"/>
<path d="M380 200H384V204H380V200Z" fill="#E5E7EB"/>
<path d="M400 200H404V204H400V200Z" fill="#E5E7EB"/>
<path d="M0 220H4V224H0V220Z" fill="#E5E7EB"/>
<path d="M20 220H24V224H20V220Z" fill="#E5E7EB"/>
<path d="M40 220H44V224H40V220Z" fill="#E5E7EB"/>
<path d="M60 220H64V224H60V220Z" fill="#E5E7EB"/>
<path d="M80 220H84V224H80V220Z" fill="#E5E7EB"/>
<path d="M100 220H104V224H100V220Z" fill="#E5E7EB"/>
<path d="M120 220H124V224H120V220Z" fill="#E5E7EB"/>
<path d="M140 220H144V224H140V220Z" fill="#E5E7EB"/>
<path d="M160 220H164V224H160V220Z" fill="#E5E7EB"/>
<path d="M180 220H184V224H180V220Z" fill="#E5E7EB"/>
<path d="M200 220H204V224H200V220Z" fill="#E5E7EB"/>
<path d="M220 220H224V224H220V220Z" fill="#E5E7EB"/>
<path d="M240 220H244V224H240V220Z" fill="#E5E7EB"/>
<path d="M260 220H264V224H260V220Z" fill="#E5E7EB"/>
<path d="M280 220H284V224H280V220Z" fill="#E5E7EB"/>
<path d="M300 220H304V224H300V220Z" fill="#E5E7EB"/>
<path d="M320 220H324V224H320V220Z" fill="#E5E7EB"/>
<path d="M340 220H344V224H340V220Z" fill="#E5E7EB"/>
<path d="M360 220H364V224H360V220Z" fill="#E5E7EB"/>
<path d="M380 220H384V224H380V220Z" fill="#E5E7EB"/>
<path d="M400 220H404V224H400V220Z" fill="#E5E7EB"/>
<path d="M0 240H4V244H0V240Z" fill="#E5E7EB"/>
<path d="M20 240H24V244H20V240Z" fill="#E5E7EB"/>
<path d="M40 240H44V244H40V240Z" fill="#E5E7EB"/>
<path d="M60 240H64V244H60V240Z" fill="#E5E7EB"/>
<path d="M80 240H84V244H80V240Z" fill="#E5E7EB"/>
<path d="M100 240H104V244H100V240Z" fill="#E5E7EB"/>
<path d="M120 240H124V244H120V240Z" fill="#E5E7EB"/>
<path d="M140 240H144V244H140V240Z" fill="#E5E7EB"/>
<path d="M160 240H164V244H160V240Z" fill="#E5E7EB"/>
<path d="M180 240H184V244H180V240Z" fill="#E5E7EB"/>
<path d="M200 240H204V244H200V240Z" fill="#E5E7EB"/>
<path d="M220 240H224V244H220V240Z" fill="#E5E7EB"/>
<path d="M240 240H244V244H240V240Z" fill="#E5E7EB"/>
<path d="M260 240H264V244H260V240Z" fill="#E5E7EB"/>
<path d="M280 240H284V244H280V240Z" fill="#E5E7EB"/>
<path d="M300 240H304V244H300V240Z" fill="#E5E7EB"/>
<path d="M320 240H324V244H320V240Z" fill="#E5E7EB"/>
<path d="M340 240H344V244H340V240Z" fill="#E5E7EB"/>
<path d="M360 240H364V244H360V240Z" fill="#E5E7EB"/>
<path d="M380 240H384V244H380V240Z" fill="#E5E7EB"/>
<path d="M400 240H404V244H400V240Z" fill="#E5E7EB"/>
<path d="M0 260H4V264H0V260Z" fill="#E5E7EB"/>
<path d="M20 260H24V264H20V260Z" fill="#E5E7EB"/>
<path d="M40 260H44V264H40V260Z" fill="#E5E7EB"/>
<path d="M60 260H64V264H60V260Z" fill="#E5E7EB"/>
<path d="M80 260H84V264H80V260Z" fill="#E5E7EB"/>
<path d="M100 260H104V264H100V260Z" fill="#E5E7EB"/>
<path d="M120 260H124V264H120V260Z" fill="#E5E7EB"/>
<path d="M140 260H144V264H140V260Z" fill="#E5E7EB"/>
<path d="M160 260H164V264H160V260Z" fill="#E5E7EB"/>
<path d="M180 260H184V264H180V260Z" fill="#E5E7EB"/>
<path d="M200 260H204V264H200V260Z" fill="#E5E7EB"/>
<path d="M220 260H224V264H220V260Z" fill="#E5E7EB"/>
<path d="M240 260H244V264H240V260Z" fill="#E5E7EB"/>
<path d="M260 260H264V264H260V260Z" fill="#E5E7EB"/>
<path d="M280 260H284V264H280V260Z" fill="#E5E7EB"/>
<path d="M300 260H304V264H300V260Z" fill="#E5E7EB"/>
<path d="M320 260H324V264H320V260Z" fill="#E5E7EB"/>
<path d="M340 260H344V264H340V260Z" fill="#E5E7EB"/>
<path d="M360 260H364V264H360V260Z" fill="#E5E7EB"/>
<path d="M380 260H384V264H380V260Z" fill="#E5E7EB"/>
<path d="M400 260H404V264H400V260Z" fill="#E5E7EB"/>
<path d="M0 280H4V284H0V280Z" fill="#E5E7EB"/>
<path d="M20 280H24V284H20V280Z" fill="#E5E7EB"/>
<path d="M40 280H44V284H40V280Z" fill="#E5E7EB"/>
<path d="M60 280H64V284H60V280Z" fill="#E5E7EB"/>
<path d="M80 280H84V284H80V280Z" fill="#E5E7EB"/>
<path d="M100 280H104V284H100V280Z" fill="#E5E7EB"/>
<path d="M120 280H124V284H120V280Z" fill="#E5E7EB"/>
<path d="M140 280H144V284H140V280Z" fill="#E5E7EB"/>
<path d="M160 280H164V284H160V280Z" fill="#E5E7EB"/>
<path d="M180 280H184V284H180V280Z" fill="#E5E7EB"/>
<path d="M200 280H204V284H200V280Z" fill="#E5E7EB"/>
<path d="M220 280H224V284H220V280Z" fill="#E5E7EB"/>
<path d="M240 280H244V284H240V280Z" fill="#E5E7EB"/>
<path d="M260 280H264V284H260V280Z" fill="#E5E7EB"/>
<path d="M280 280H284V284H280V280Z" fill="#E5E7EB"/>
<path d="M300 280H304V284H300V280Z" fill="#E5E7EB"/>
<path d="M320 280H324V284H320V280Z" fill="#E5E7EB"/>
<path d="M340 280H344V284H340V280Z" fill="#E5E7EB"/>
<path d="M360 280H364V284H360V280Z" fill="#E5E7EB"/>
<path d="M380 280H384V284H380V280Z" fill="#E5E7EB"/>
<path d="M400 280H404V284H400V280Z" fill="#E5E7EB"/>
<path d="M0 300H4V304H0V300Z" fill="#E5E7EB"/>
<path d="M20 300H24V304H20V300Z" fill="#E5E7EB"/>
<path d="M40 300H44V304H40V300Z" fill="#E5E7EB"/>
<path d="M60 300H64V304H60V300Z" fill="#E5E7EB"/>
<path d="M80 300H84V304H80V300Z" fill="#E5E7EB"/>
<path d="M100 300H104V304H100V300Z" fill="#E5E7EB"/>
<path d="M120 300H124V304H120V300Z" fill="#E5E7EB"/>
<path d="M140 300H144V304H140V300Z" fill="#E5E7EB"/>
<path d="M160 300H164V304H160V300Z" fill="#E5E7EB"/>
<path d="M180 300H184V304H180V300Z" fill="#E5E7EB"/>
<path d="M200 300H204V304H200V300Z" fill="#E5E7EB"/>
<path d="M220 300H224V304H220V300Z" fill="#E5E7EB"/>
<path d="M240 300H244V304H240V300Z" fill="#E5E7EB"/>
<path d="M260 300H264V304H260V300Z" fill="#E5E7EB"/>
<path d="M280 300H284V304H280V300Z" fill="#E5E7EB"/>
<path d="M300 300H304V304H300V300Z" fill="#E5E7EB"/>
<path d="M320 300H324V304H320V300Z" fill="#E5E7EB"/>
<path d="M340 300H344V304H340V300Z" fill="#E5E7EB"/>
<path d="M360 300H364V304H360V300Z" fill="#E5E7EB"/>
<path d="M380 300H384V304H380V300Z" fill="#E5E7EB"/>
<path d="M400 300H404V304H400V300Z" fill="#E5E7EB"/>
<path d="M0 320H4V324H0V320Z" fill="#E5E7EB"/>
<path d="M20 320H24V324H20V320Z" fill="#E5E7EB"/>
<path d="M40 320H44V324H40V320Z" fill="#E5E7EB"/>
<path d="M60 320H64V324H60V320Z" fill="#E5E7EB"/>
<path d="M80 320H84V324H80V320Z" fill="#E5E7EB"/>
<path d="M100 320H104V324H100V320Z" fill="#E5E7EB"/>
<path d="M120 320H124V324H120V320Z" fill="#E5E7EB"/>
<path d="M140 320H144V324H140V320Z" fill="#E5E7EB"/>
<path d="M160 320H164V324H160V320Z" fill="#E5E7EB"/>
<path d="M180 320H184V324H180V320Z" fill="#E5E7EB"/>
<path d="M200 320H204V324H200V320Z" fill="#E5E7EB"/>
<path d="M220 320H224V324H220V320Z" fill="#E5E7EB"/>
<path d="M240 320H244V324H240V320Z" fill="#E5E7EB"/>
<path d="M260 320H264V324H260V320Z" fill="#E5E7EB"/>
<path d="M280 320H284V324H280V320Z" fill="#E5E7EB"/>
<path d="M300 320H304V324H300V320Z" fill="#E5E7EB"/>
<path d="M320 320H324V324H320V320Z" fill="#E5E7EB"/>
<path d="M340 320H344V324H340V320Z" fill="#E5E7EB"/>
<path d="M360 320H364V324H360V320Z" fill="#E5E7EB"/>
<path d="M380 320H384V324H380V320Z" fill="#E5E7EB"/>
<path d="M400 320H404V324H400V320Z" fill="#E5E7EB"/>
<path d="M0 340H4V344H0V340Z" fill="#E5E7EB"/>
<path d="M20 340H24V344H20V340Z" fill="#E5E7EB"/>
<path d="M40 340H44V344H40V340Z" fill="#E5E7EB"/>
<path d="M60 340H64V344H60V340Z" fill="#E5E7EB"/>
<path d="M80 340H84V344H80V340Z" fill="#E5E7EB"/>
<path d="M100 340H104V344H100V340Z" fill="#E5E7EB"/>
<path d="M120 340H124V344H120V340Z" fill="#E5E7EB"/>
<path d="M140 340H144V344H140V340Z" fill="#E5E7EB"/>
<path d="M160 340H164V344H160V340Z" fill="#E5E7EB"/>
<path d="M180 340H184V344H180V340Z" fill="#E5E7EB"/>
<path d="M200 340H204V344H200V340Z" fill="#E5E7EB"/>
<path d="M220 340H224V344H220V340Z" fill="#E5E7EB"/>
<path d="M240 340H244V344H240V340Z" fill="#E5E7EB"/>
<path d="M260 340H264V344H260V340Z" fill="#E5E7EB"/>
<path d="M280 340H284V344H280V340Z" fill="#E5E7EB"/>
<path d="M300 340H304V344H300V340Z" fill="#E5E7EB"/>
<path d="M320 340H324V344H320V340Z" fill="#E5E7EB"/>
<path d="M340 340H344V344H340V340Z" fill="#E5E7EB"/>
<path d="M360 340H364V344H360V340Z" fill="#E5E7EB"/>
<path d="M380 340H384V344H380V340Z" fill="#E5E7EB"/>
<path d="M400 340H404V344H400V340Z" fill="#E5E7EB"/>
<path d="M0 360H4V364H0V360Z" fill="#E5E7EB"/>
<path d="M20 360H24V364H20V360Z" fill="#E5E7EB"/>
<path d="M40 360H44V364H40V360Z" fill="#E5E7EB"/>
<path d="M60 360H64V364H60V360Z" fill="#E5E7EB"/>
<path d="M80 360H84V364H80V360Z" fill="#E5E7EB"/>
<path d="M100 360H104V364H100V360Z" fill="#E5E7EB"/>
<path d="M120 360H124V364H120V360Z" fill="#E5E7EB"/>
<path d="M140 360H144V364H140V360Z" fill="#E5E7EB"/>
<path d="M160 360H164V364H160V360Z" fill="#E5E7EB"/>
<path d="M180 360H184V364H180V360Z" fill="#E5E7EB"/>
<path d="M200 360H204V364H200V360Z" fill="#E5E7EB"/>
<path d="M220 360H224V364H220V360Z" fill="#E5E7EB"/>
<path d="M240 360H244V364H240V360Z" fill="#E5E7EB"/>
<path d="M260 360H264V364H260V360Z" fill="#E5E7EB"/>
<path d="M280 360H284V364H280V360Z" fill="#E5E7EB"/>
<path d="M300 360H304V364H300V360Z" fill="#E5E7EB"/>
<path d="M320 360H324V364H320V360Z" fill="#E5E7EB"/>
<path d="M340 360H344V364H340V360Z" fill="#E5E7EB"/>
<path d="M360 360H364V364H360V360Z" fill="#E5E7EB"/>
<path d="M380 360H384V364H380V360Z" fill="#E5E7EB"/>
<path d="M400 360H404V364H400V360Z" fill="#E5E7EB"/>
<path d="M0 380H4V384H0V380Z" fill="#E5E7EB"/>
<path d="M20 380H24V384H20V380Z" fill="#E5E7EB"/>
<path d="M40 380H44V384H40V380Z" fill="#E5E7EB"/>
<path d="M60 380H64V384H60V380Z" fill="#E5E7EB"/>
<path d="M80 380H84V384H80V380Z" fill="#E5E7EB"/>
<path d="M100 380H104V384H100V380Z" fill="#E5E7EB"/>
<path d="M120 380H124V384H120V380Z" fill="#E5E7EB"/>
<path d="M140 380H144V384H140V380Z" fill="#E5E7EB"/>
<path d="M160 380H164V384H160V380Z" fill="#E5E7EB"/>
<path d="M180 380H184V384H180V380Z" fill="#E5E7EB"/>
<path d="M200 380H204V384H200V380Z" fill="#E5E7EB"/>
<path d="M220 380H224V384H220V380Z" fill="#E5E7EB"/>
<path d="M240 380H244V384H240V380Z" fill="#E5E7EB"/>
<path d="M260 380H264V384H260V380Z" fill="#E5E7EB"/>
<path d="M280 380H284V384H280V380Z" fill="#E5E7EB"/>
<path d="M300 380H304V384H300V380Z" fill="#E5E7EB"/>
<path d="M320 380H324V384H320V380Z" fill="#E5E7EB"/>
<path d="M340 380H344V384H340V380Z" fill="#E5E7EB"/>
<path d="M360 380H364V384H360V380Z" fill="#E5E7EB"/>
<path d="M380 380H384V384H380V380Z" fill="#E5E7EB"/>
<path d="M400 380H404V384H400V380Z" fill="#E5E7EB"/>
<path d="M0 400H4V404H0V400Z" fill="#E5E7EB"/>
<path d="M20 400H24V404H20V400Z" fill="#E5E7EB"/>
<path d="M40 400H44V404H40V400Z" fill="#E5E7EB"/>
<path d="M60 400H64V404H60V400Z" fill="#E5E7EB"/>
<path d="M80 400H84V404H80V400Z" fill="#E5E7EB"/>
<path d="M100 400H104V404H100V400Z" fill="#E5E7EB"/>
<path d="M120 400H124V404H120V400Z" fill="#E5E7EB"/>
<path d="M140 400H144V404H140V400Z" fill="#E5E7EB"/>
<path d="M160 400H164V404H160V400Z" fill="#E5E7EB"/>
<path d="M180 400H184V404H180V400Z" fill="#E5E7EB"/>
<path d="M200 400H204V404H200V400Z" fill="#E5E7EB"/>
<path d="M220 400H224V404H220V400Z" fill="#E5E7EB"/>
<path d="M240 400H244V404H240V400Z" fill="#E5E7EB"/>
<path d="M260 400H264V404H260V400Z" fill="#E5E7EB"/>
<path d="M280 400H284V404H280V400Z" fill="#E5E7EB"/>
<path d="M300 400H304V404H300V400Z" fill="#E5E7EB"/>
<path d="M320 400H324V404H320V400Z" fill="#E5E7EB"/>
<path d="M340 400H344V404H340V400Z" fill="#E5E7EB"/>
<path d="M360 400H364V404H360V400Z" fill="#E5E7EB"/>
<path d="M380 400H384V404H380V400Z" fill="#E5E7EB"/>
<path d="M400 400H404V404H400V400Z" fill="#E5E7EB"/>
<path d="M0 420H4V424H0V420Z" fill="#E5E7EB"/>
<path d="M20 420H24V424H20V420Z" fill="#E5E7EB"/>
<path d="M40 420H44V424H40V420Z" fill="#E5E7EB"/>
<path d="M60 420H64V424H60V420Z" fill="#E5E7EB"/>
<path d="M80 420H84V424H80V420Z" fill="#E5E7EB"/>
<path d="M100 420H104V424H100V420Z" fill="#E5E7EB"/>
<path d="M120 420H124V424H120V420Z" fill="#E5E7EB"/>
<path d="M140 420H144V424H140V420Z" fill="#E5E7EB"/>
<path d="M160 420H164V424H160V420Z" fill="#E5E7EB"/>
<path d="M180 420H184V424H180V420Z" fill="#E5E7EB"/>
<path d="M200 420H204V424H200V420Z" fill="#E5E7EB"/>
<path d="M220 420H224V424H220V420Z" fill="#E5E7EB"/>
<path d="M240 420H244V424H240V420Z" fill="#E5E7EB"/>
<path d="M260 420H264V424H260V420Z" fill="#E5E7EB"/>
<path d="M280 420H284V424H280V420Z" fill="#E5E7EB"/>
<path d="M300 420H304V424H300V420Z" fill="#E5E7EB"/>
<path d="M320 420H324V424H320V420Z" fill="#E5E7EB"/>
<path d="M340 420H344V424H340V420Z" fill="#E5E7EB"/>
<path d="M360 420H364V424H360V420Z" fill="#E5E7EB"/>
<path d="M380 420H384V424H380V420Z" fill="#E5E7EB"/>
<path d="M400 420H404V424H400V420Z" fill="#E5E7EB"/>
<path d="M0 440H4V444H0V440Z" fill="#E5E7EB"/>
<path d="M20 440H24V444H20V440Z" fill="#E5E7EB"/>
<path d="M40 440H44V444H40V440Z" fill="#E5E7EB"/>
<path d="M60 440H64V444H60V440Z" fill="#E5E7EB"/>
<path d="M80 440H84V444H80V440Z" fill="#E5E7EB"/>
<path d="M100 440H104V444H100V440Z" fill="#E5E7EB"/>
<path d="M120 440H124V444H120V440Z" fill="#E5E7EB"/>
<path d="M140 440H144V444H140V440Z" fill="#E5E7EB"/>
<path d="M160 440H164V444H160V440Z" fill="#E5E7EB"/>
<path d="M180 440H184V444H180V440Z" fill="#E5E7EB"/>
<path d="M200 440H204V444H200V440Z" fill="#E5E7EB"/>
<path d="M220 440H224V444H220V440Z" fill="#E5E7EB"/>
<path d="M240 440H244V444H240V440Z" fill="#E5E7EB"/>
<path d="M260 440H264V444H260V440Z" fill="#E5E7EB"/>
<path d="M280 440H284V444H280V440Z" fill="#E5E7EB"/>
<path d="M300 440H304V444H300V440Z" fill="#E5E7EB"/>
<path d="M320 440H324V444H320V440Z" fill="#E5E7EB"/>
<path d="M340 440H344V444H340V440Z" fill="#E5E7EB"/>
<path d="M360 440H364V444H360V440Z" fill="#E5E7EB"/>
<path d="M380 440H384V444H380V440Z" fill="#E5E7EB"/>
<path d="M400 440H404V444H400V440Z" fill="#E5E7EB"/>
<path d="M0 460H4V464H0V460Z" fill="#E5E7EB"/>
<path d="M20 460H24V464H20V460Z" fill="#E5E7EB"/>
<path d="M40 460H44V464H40V460Z" fill="#E5E7EB"/>
<path d="M60 460H64V464H60V460Z" fill="#E5E7EB"/>
<path d="M80 460H84V464H80V460Z" fill="#E5E7EB"/>
<path d="M100 460H104V464H100V460Z" fill="#E5E7EB"/>
<path d="M120 460H124V464H120V460Z" fill="#E5E7EB"/>
<path d="M140 460H144V464H140V460Z" fill="#E5E7EB"/>
<path d="M160 460H164V464H160V460Z" fill="#E5E7EB"/>
<path d="M180 460H184V464H180V460Z" fill="#E5E7EB"/>
<path d="M200 460H204V464H200V460Z" fill="#E5E7EB"/>
<path d="M220 460H224V464H220V460Z" fill="#E5E7EB"/>
<path d="M240 460H244V464H240V460Z" fill="#E5E7EB"/>
<path d="M260 460H264V464H260V460Z" fill="#E5E7EB"/>
<path d="M280 460H284V464H280V460Z" fill="#E5E7EB"/>
<path d="M300 460H304V464H300V460Z" fill="#E5E7EB"/>
<path d="M320 460H324V464H320V460Z" fill="#E5E7EB"/>
<path d="M340 460H344V464H340V460Z" fill="#E5E7EB"/>
<path d="M360 460H364V464H360V460Z" fill="#E5E7EB"/>
<path d="M380 460H384V464H380V460Z" fill="#E5E7EB"/>
<path d="M400 460H404V464H400V460Z" fill="#E5E7EB"/>
<path d="M0 480H4V484H0V480Z" fill="#E5E7EB"/>
<path d="M20 480H24V484H20V480Z" fill="#E5E7EB"/>
<path d="M40 480H44V484H40V480Z" fill="#E5E7EB"/>
<path d="M60 480H64V484H60V480Z" fill="#E5E7EB"/>
<path d="M80 480H84V484H80V480Z" fill="#E5E7EB"/>
<path d="M100 480H104V484H100V480Z" fill="#E5E7EB"/>
<path d="M120 480H124V484H120V480Z" fill="#E5E7EB"/>
<path d="M140 480H144V484H140V480Z" fill="#E5E7EB"/>
<path d="M160 480H164V484H160V480Z" fill="#E5E7EB"/>
<path d="M180 480H184V484H180V480Z" fill="#E5E7EB"/>
<path d="M200 480H204V484H200V480Z" fill="#E5E7EB"/>
<path d="M220 480H224V484H220V480Z" fill="#E5E7EB"/>
<path d="M240 480H244V484H240V480Z" fill="#E5E7EB"/>
<path d="M260 480H264V484H260V480Z" fill="#E5E7EB"/>
<path d="M280 480H284V484H280V480Z" fill="#E5E7EB"/>
<path d="M300 480H304V484H300V480Z" fill="#E5E7EB"/>
<path d="M320 480H324V484H320V480Z" fill="#E5E7EB"/>
<path d="M340 480H344V484H340V480Z" fill="#E5E7EB"/>
<path d="M360 480H364V484H360V480Z" fill="#E5E7EB"/>
<path d="M380 480H384V484H380V480Z" fill="#E5E7EB"/>
<path d="M400 480H404V484H400V480Z" fill="#E5E7EB"/>
<path d="M0 500H4V504H0V500Z" fill="#E5E7EB"/>
<path d="M20 500H24V504H20V500Z" fill="#E5E7EB"/>
<path d="M40 500H44V504H40V500Z" fill="#E5E7EB"/>
<path d="M60 500H64V504H60V500Z" fill="#E5E7EB"/>
<path d="M80 500H84V504H80V500Z" fill="#E5E7EB"/>
<path d="M100 500H104V504H100V500Z" fill="#E5E7EB"/>
<path d="M120 500H124V504H120V500Z" fill="#E5E7EB"/>
<path d="M140 500H144V504H140V500Z" fill="#E5E7EB"/>
<path d="M160 500H164V504H160V500Z" fill="#E5E7EB"/>
<path d="M180 500H184V504H180V500Z" fill="#E5E7EB"/>
<path d="M200 500H204V504H200V500Z" fill="#E5E7EB"/>
<path d="M220 500H224V504H220V500Z" fill="#E5E7EB"/>
<path d="M240 500H244V504H240V500Z" fill="#E5E7EB"/>
<path d="M260 500H264V504H260V500Z" fill="#E5E7EB"/>
<path d="M280 500H284V504H280V500Z" fill="#E5E7EB"/>
<path d="M300 500H304V504H300V500Z" fill="#E5E7EB"/>
<path d="M320 500H324V504H320V500Z" fill="#E5E7EB"/>
<path d="M340 500H344V504H340V500Z" fill="#E5E7EB"/>
<path d="M360 500H364V504H360V500Z" fill="#E5E7EB"/>
<path d="M380 500H384V504H380V500Z" fill="#E5E7EB"/>
<path d="M400 500H404V504H400V500Z" fill="#E5E7EB"/>
<path d="M0 520H4V524H0V520Z" fill="#E5E7EB"/>
<path d="M20 520H24V524H20V520Z" fill="#E5E7EB"/>
<path d="M40 520H44V524H40V520Z" fill="#E5E7EB"/>
<path d="M60 520H64V524H60V520Z" fill="#E5E7EB"/>
<path d="M80 520H84V524H80V520Z" fill="#E5E7EB"/>
<path d="M100 520H104V524H100V520Z" fill="#E5E7EB"/>
<path d="M120 520H124V524H120V520Z" fill="#E5E7EB"/>
<path d="M140 520H144V524H140V520Z" fill="#E5E7EB"/>
<path d="M160 520H164V524H160V520Z" fill="#E5E7EB"/>
<path d="M180 520H184V524H180V520Z" fill="#E5E7EB"/>
<path d="M200 520H204V524H200V520Z" fill="#E5E7EB"/>
<path d="M220 520H224V524H220V520Z" fill="#E5E7EB"/>
<path d="M240 520H244V524H240V520Z" fill="#E5E7EB"/>
<path d="M260 520H264V524H260V520Z" fill="#E5E7EB"/>
<path d="M280 520H284V524H280V520Z" fill="#E5E7EB"/>
<path d="M300 520H304V524H300V520Z" fill="#E5E7EB"/>
<path d="M320 520H324V524H320V520Z" fill="#E5E7EB"/>
<path d="M340 520H344V524H340V520Z" fill="#E5E7EB"/>
<path d="M360 520H364V524H360V520Z" fill="#E5E7EB"/>
<path d="M380 520H384V524H380V520Z" fill="#E5E7EB"/>
<path d="M400 520H404V524H400V520Z" fill="#E5E7EB"/>
<path d="M0 540H4V544H0V540Z" fill="#E5E7EB"/>
<path d="M20 540H24V544H20V540Z" fill="#E5E7EB"/>
<path d="M40 540H44V544H40V540Z" fill="#E5E7EB"/>
<path d="M60 540H64V544H60V540Z" fill="#E5E7EB"/>
<path d="M80 540H84V544H80V540Z" fill="#E5E7EB"/>
<path d="M100 540H104V544H100V540Z" fill="#E5E7EB"/>
<path d="M120 540H124V544H120V540Z" fill="#E5E7EB"/>
<path d="M140 540H144V544H140V540Z" fill="#E5E7EB"/>
<path d="M160 540H164V544H160V540Z" fill="#E5E7EB"/>
<path d="M180 540H184V544H180V540Z" fill="#E5E7EB"/>
<path d="M200 540H204V544H200V540Z" fill="#E5E7EB"/>
<path d="M220 540H224V544H220V540Z" fill="#E5E7EB"/>
<path d="M240 540H244V544H240V540Z" fill="#E5E7EB"/>
<path d="M260 540H264V544H260V540Z" fill="#E5E7EB"/>
<path d="M280 540H284V544H280V540Z" fill="#E5E7EB"/>
<path d="M300 540H304V544H300V540Z" fill="#E5E7EB"/>
<path d="M320 540H324V544H320V540Z" fill="#E5E7EB"/>
<path d="M340 540H344V544H340V540Z" fill="#E5E7EB"/>
<path d="M360 540H364V544H360V540Z" fill="#E5E7EB"/>
<path d="M380 540H384V544H380V540Z" fill="#E5E7EB"/>
<path d="M400 540H404V544H400V540Z" fill="#E5E7EB"/>
<path d="M0 560H4V564H0V560Z" fill="#E5E7EB"/>
<path d="M20 560H24V564H20V560Z" fill="#E5E7EB"/>
<path d="M40 560H44V564H40V560Z" fill="#E5E7EB"/>
<path d="M60 560H64V564H60V560Z" fill="#E5E7EB"/>
<path d="M80 560H84V564H80V560Z" fill="#E5E7EB"/>
<path d="M100 560H104V564H100V560Z" fill="#E5E7EB"/>
<path d="M120 560H124V564H120V560Z" fill="#E5E7EB"/>
<path d="M140 560H144V564H140V560Z" fill="#E5E7EB"/>
<path d="M160 560H164V564H160V560Z" fill="#E5E7EB"/>
<path d="M180 560H184V564H180V560Z" fill="#E5E7EB"/>
<path d="M200 560H204V564H200V560Z" fill="#E5E7EB"/>
<path d="M220 560H224V564H220V560Z" fill="#E5E7EB"/>
<path d="M240 560H244V564H240V560Z" fill="#E5E7EB"/>
<path d="M260 560H264V564H260V560Z" fill="#E5E7EB"/>
<path d="M280 560H284V564H280V560Z" fill="#E5E7EB"/>
<path d="M300 560H304V564H300V560Z" fill="#E5E7EB"/>
<path d="M320 560H324V564H320V560Z" fill="#E5E7EB"/>
<path d="M340 560H344V564H340V560Z" fill="#E5E7EB"/>
<path d="M360 560H364V564H360V560Z" fill="#E5E7EB"/>
<path d="M380 560H384V564H380V560Z" fill="#E5E7EB"/>
<path d="M400 560H404V564H400V560Z" fill="#E5E7EB"/>
<path d="M0 580H4V584H0V580Z" fill="#E5E7EB"/>
<path d="M20 580H24V584H20V580Z" fill="#E5E7EB"/>
<path d="M40 580H44V584H40V580Z" fill="#E5E7EB"/>
<path d="M60 580H64V584H60V580Z" fill="#E5E7EB"/>
<path d="M80 580H84V584H80V580Z" fill="#E5E7EB"/>
<path d="M100 580H104V584H100V580Z" fill="#E5E7EB"/>
<path d="M120 580H124V584H120V580Z" fill="#E5E7EB"/>
<path d="M140 580H144V584H140V580Z" fill="#E5E7EB"/>
<path d="M160 580H164V584H160V580Z" fill="#E5E7EB"/>
<path d="M180 580H184V584H180V580Z" fill="#E5E7EB"/>
<path d="M200 580H204V584H200V580Z" fill="#E5E7EB"/>
<path d="M220 580H224V584H220V580Z" fill="#E5E7EB"/>
<path d="M240 580H244V584H240V580Z" fill="#E5E7EB"/>
<path d="M260 580H264V584H260V580Z" fill="#E5E7EB"/>
<path d="M280 580H284V584H280V580Z" fill="#E5E7EB"/>
<path d="M300 580H304V584H300V580Z" fill="#E5E7EB"/>
<path d="M320 580H324V584H320V580Z" fill="#E5E7EB"/>
<path d="M340 580H344V584H340V580Z" fill="#E5E7EB"/>
<path d="M360 580H364V584H360V580Z" fill="#E5E7EB"/>
<path d="M380 580H384V584H380V580Z" fill="#E5E7EB"/>
<path d="M400 580H404V584H400V580Z" fill="#E5E7EB"/>
<path d="M0 600H4V604H0V600Z" fill="#E5E7EB"/>
<path d="M20 600H24V604H20V600Z" fill="#E5E7EB"/>
<path d="M40 600H44V604H40V600Z" fill="#E5E7EB"/>
<path d="M60 600H64V604H60V600Z" fill="#E5E7EB"/>
<path d="M80 600H84V604H80V600Z" fill="#E5E7EB"/>
<path d="M100 600H104V604H100V600Z" fill="#E5E7EB"/>
<path d="M120 600H124V604H120V600Z" fill="#E5E7EB"/>
<path d="M140 600H144V604H140V600Z" fill="#E5E7EB"/>
<path d="M160 600H164V604H160V600Z" fill="#E5E7EB"/>
<path d="M180 600H184V604H180V600Z" fill="#E5E7EB"/>
<path d="M200 600H204V604H200V600Z" fill="#E5E7EB"/>
<path d="M220 600H224V604H220V600Z" fill="#E5E7EB"/>
<path d="M240 600H244V604H240V600Z" fill="#E5E7EB"/>
<path d="M260 600H264V604H260V600Z" fill="#E5E7EB"/>
<path d="M280 600H284V604H280V600Z" fill="#E5E7EB"/>
<path d="M300 600H304V604H300V600Z" fill="#E5E7EB"/>
<path d="M320 600H324V604H320V600Z" fill="#E5E7EB"/>
<path d="M340 600H344V604H340V600Z" fill="#E5E7EB"/>
<path d="M360 600H364V604H360V600Z" fill="#E5E7EB"/>
<path d="M380 600H384V604H380V600Z" fill="#E5E7EB"/>
<path d="M400 600H404V604H400V600Z" fill="#E5E7EB"/>
<path d="M0 620H4V624H0V620Z" fill="#E5E7EB"/>
<path d="M20 620H24V624H20V620Z" fill="#E5E7EB"/>
<path d="M40 620H44V624H40V620Z" fill="#E5E7EB"/>
<path d="M60 620H64V624H60V620Z" fill="#E5E7EB"/>
<path d="M80 620H84V624H80V620Z" fill="#E5E7EB"/>
<path d="M100 620H104V624H100V620Z" fill="#E5E7EB"/>
<path d="M120 620H124V624H120V620Z" fill="#E5E7EB"/>
<path d="M140 620H144V624H140V620Z" fill="#E5E7EB"/>
<path d="M160 620H164V624H160V620Z" fill="#E5E7EB"/>
<path d="M180 620H184V624H180V620Z" fill="#E5E7EB"/>
<path d="M200 620H204V624H200V620Z" fill="#E5E7EB"/>
<path d="M220 620H224V624H220V620Z" fill="#E5E7EB"/>
<path d="M240 620H244V624H240V620Z" fill="#E5E7EB"/>
<path d="M260 620H264V624H260V620Z" fill="#E5E7EB"/>
<path d="M280 620H284V624H280V620Z" fill="#E5E7EB"/>
<path d="M300 620H304V624H300V620Z" fill="#E5E7EB"/>
<path d="M320 620H324V624H320V620Z" fill="#E5E7EB"/>
<path d="M340 620H344V624H340V620Z" fill="#E5E7EB"/>
<path d="M360 620H364V624H360V620Z" fill="#E5E7EB"/>
<path d="M380 620H384V624H380V620Z" fill="#E5E7EB"/>
<path d="M400 620H404V624H400V620Z" fill="#E5E7EB"/>
<path d="M0 640H4V644H0V640Z" fill="#E5E7EB"/>
<path d="M20 640H24V644H20V640Z" fill="#E5E7EB"/>
<path d="M40 640H44V644H40V640Z" fill="#E5E7EB"/>
<path d="M60 640H64V644H60V640Z" fill="#E5E7EB"/>
<path d="M80 640H84V644H80V640Z" fill="#E5E7EB"/>
<path d="M100 640H104V644H100V640Z" fill="#E5E7EB"/>
<path d="M120 640H124V644H120V640Z" fill="#E5E7EB"/>
<path d="M140 640H144V644H140V640Z" fill="#E5E7EB"/>
<path d="M160 640H164V644H160V640Z" fill="#E5E7EB"/>
<path d="M180 640H184V644H180V640Z" fill="#E5E7EB"/>
<path d="M200 640H204V644H200V640Z" fill="#E5E7EB"/>
<path d="M220 640H224V644H220V640Z" fill="#E5E7EB"/>
<path d="M240 640H244V644H240V640Z" fill="#E5E7EB"/>
<path d="M260 640H264V644H260V640Z" fill="#E5E7EB"/>
<path d="M280 640H284V644H280V640Z" fill="#E5E7EB"/>
<path d="M300 640H304V644H300V640Z" fill="#E5E7EB"/>
<path d="M320 640H324V644H320V640Z" fill="#E5E7EB"/>
<path d="M340 640H344V644H340V640Z" fill="#E5E7EB"/>
<path d="M360 640H364V644H360V640Z" fill="#E5E7EB"/>
<path d="M380 640H384V644H380V640Z" fill="#E5E7EB"/>
<path d="M400 640H404V644H400V640Z" fill="#E5E7EB"/>
<path d="M0 660H4V664H0V660Z" fill="#E5E7EB"/>
<path d="M20 660H24V664H20V660Z" fill="#E5E7EB"/>
<path d="M40 660H44V664H40V660Z" fill="#E5E7EB"/>
<path d="M60 660H64V664H60V660Z" fill="#E5E7EB"/>
<path d="M80 660H84V664H80V660Z" fill="#E5E7EB"/>
<path d="M100 660H104V664H100V660Z" fill="#E5E7EB"/>
<path d="M120 660H124V664H120V660Z" fill="#E5E7EB"/>
<path d="M140 660H144V664H140V660Z" fill="#E5E7EB"/>
<path d="M160 660H164V664H160V660Z" fill="#E5E7EB"/>
<path d="M180 660H184V664H180V660Z" fill="#E5E7EB"/>
<path d="M200 660H204V664H200V660Z" fill="#E5E7EB"/>
<path d="M220 660H224V664H220V660Z" fill="#E5E7EB"/>
<path d="M240 660H244V664H240V660Z" fill="#E5E7EB"/>
<path d="M260 660H264V664H260V660Z" fill="#E5E7EB"/>
<path d="M280 660H284V664H280V660Z" fill="#E5E7EB"/>
<path d="M300 660H304V664H300V660Z" fill="#E5E7EB"/>
<path d="M320 660H324V664H320V660Z" fill="#E5E7EB"/>
<path d="M340 660H344V664H340V660Z" fill="#E5E7EB"/>
<path d="M360 660H364V664H360V660Z" fill="#E5E7EB"/>
<path d="M380 660H384V664H380V660Z" fill="#E5E7EB"/>
<path d="M400 660H404V664H400V660Z" fill="#E5E7EB"/>
<path d="M0 680H4V684H0V680Z" fill="#E5E7EB"/>
<path d="M20 680H24V684H20V680Z" fill="#E5E7EB"/>
<path d="M40 680H44V684H40V680Z" fill="#E5E7EB"/>
<path d="M60 680H64V684H60V680Z" fill="#E5E7EB"/>
<path d="M80 680H84V684H80V680Z" fill="#E5E7EB"/>
<path d="M100 680H104V684H100V680Z" fill="#E5E7EB"/>
<path d="M120 680H124V684H120V680Z" fill="#E5E7EB"/>
<path d="M140 680H144V684H140V680Z" fill="#E5E7EB"/>
<path d="M160 680H164V684H160V680Z" fill="#E5E7EB"/>
<path d="M180 680H184V684H180V680Z" fill="#E5E7EB"/>
<path d="M200 680H204V684H200V680Z" fill="#E5E7EB"/>
<path d="M220 680H224V684H220V680Z" fill="#E5E7EB"/>
<path d="M240 680H244V684H240V680Z" fill="#E5E7EB"/>
<path d="M260 680H264V684H260V680Z" fill="#E5E7EB"/>
<path d="M280 680H284V684H280V680Z" fill="#E5E7EB"/>
<path d="M300 680H304V684H300V680Z" fill="#E5E7EB"/>
<path d="M320 680H324V684H320V680Z" fill="#E5E7EB"/>
<path d="M340 680H344V684H340V680Z" fill="#E5E7EB"/>
<path d="M360 680H364V684H360V680Z" fill="#E5E7EB"/>
<path d="M380 680H384V684H380V680Z" fill="#E5E7EB"/>
<path d="M400 680H404V684H400V680Z" fill="#E5E7EB"/>
<path d="M0 700H4V704H0V700Z" fill="#E5E7EB"/>
<path d="M20 700H24V704H20V700Z" fill="#E5E7EB"/>
<path d="M40 700H44V704H40V700Z" fill="#E5E7EB"/>
<path d="M60 700H64V704H60V700Z" fill="#E5E7EB"/>
<path d="M80 700H84V704H80V700Z" fill="#E5E7EB"/>
<path d="M100 700H104V704H100V700Z" fill="#E5E7EB"/>
<path d="M120 700H124V704H120V700Z" fill="#E5E7EB"/>
<path d="M140 700H144V704H140V700Z" fill="#E5E7EB"/>
<path d="M160 700H164V704H160V700Z" fill="#E5E7EB"/>
<path d="M180 700H184V704H180V700Z" fill="#E5E7EB"/>
<path d="M200 700H204V704H200V700Z" fill="#E5E7EB"/>
<path d="M220 700H224V704H220V700Z" fill="#E5E7EB"/>
<path d="M240 700H244V704H240V700Z" fill="#E5E7EB"/>
<path d="M260 700H264V704H260V700Z" fill="#E5E7EB"/>
<path d="M280 700H284V704H280V700Z" fill="#E5E7EB"/>
<path d="M300 700H304V704H300V700Z" fill="#E5E7EB"/>
<path d="M320 700H324V704H320V700Z" fill="#E5E7EB"/>
<path d="M340 700H344V704H340V700Z" fill="#E5E7EB"/>
<path d="M360 700H364V704H360V700Z" fill="#E5E7EB"/>
<path d="M380 700H384V704H380V700Z" fill="#E5E7EB"/>
<path d="M400 700H404V704H400V700Z" fill="#E5E7EB"/>
<path d="M0 720H4V724H0V720Z" fill="#E5E7EB"/>
<path d="M20 720H24V724H20V720Z" fill="#E5E7EB"/>
<path d="M40 720H44V724H40V720Z" fill="#E5E7EB"/>
<path d="M60 720H64V724H60V720Z" fill="#E5E7EB"/>
<path d="M80 720H84V724H80V720Z" fill="#E5E7EB"/>
<path d="M100 720H104V724H100V720Z" fill="#E5E7EB"/>
<path d="M120 720H124V724H120V720Z" fill="#E5E7EB"/>
<path d="M140 720H144V724H140V720Z" fill="#E5E7EB"/>
<path d="M160 720H164V724H160V720Z" fill="#E5E7EB"/>
<path d="M180 720H184V724H180V720Z" fill="#E5E7EB"/>
<path d="M200 720H204V724H200V720Z" fill="#E5E7EB"/>
<path d="M220 720H224V724H220V720Z" fill="#E5E7EB"/>
<path d="M240 720H244V724H240V720Z" fill="#E5E7EB"/>
<path d="M260 720H264V724H260V720Z" fill="#E5E7EB"/>
<path d="M280 720H284V724H280V720Z" fill="#E5E7EB"/>
<path d="M300 720H304V724H300V720Z" fill="#E5E7EB"/>
<path d="M320 720H324V724H320V720Z" fill="#E5E7EB"/>
<path d="M340 720H344V724H340V720Z" fill="#E5E7EB"/>
<path d="M360 720H364V724H360V720Z" fill="#E5E7EB"/>
<path d="M380 720H384V724H380V720Z" fill="#E5E7EB"/>
<path d="M400 720H404V724H400V720Z" fill="#E5E7EB"/>
</g>
<defs>
<clipPath id="clip0_378_1627">
<rect width="404" height="784" fill="white" transform="translate(0 -100)"/>
</clipPath>
</defs>
</svg>
